<svg width="568" height="440" viewBox="0 0 568 440" fill="none" xmlns="http://www.w3.org/2000/svg">
<path d="M264.416 339L239.309 420.341H171L196.107 339H264.416Z" fill="url(#paint0_linear_223_2)"/>
<path d="M392.066 327.409H172.85L169.308 338.865L144.201 420.205H80L105.107 338.865L108.63 327.409L127.487 266.377L132.693 249.503L203.534 20H267.735L196.894 249.503L191.689 266.377H373.227L392.066 327.409Z" fill="url(#paint1_linear_223_2)"/>
<path d="M488.297 420.205H420.714L395.607 338.865L392.066 327.409L373.227 266.377L368.022 249.503L327.032 116.762L286.061 249.503H217.752L288.593 20H364.746L435.605 249.503L440.81 266.377L459.649 327.409L463.19 338.865L488.297 420.205Z" fill="url(#paint2_linear_223_2)"/>
<defs>
<linearGradient id="paint0_linear_223_2" x1="217.708" y1="339" x2="217.708" y2="420.341" gradientUnits="userSpaceOnUse">
<stop stop-color="#00989D"/>
<stop offset="0.389423" stop-color="#00565A"/>
</linearGradient>
<linearGradient id="paint1_linear_223_2" x1="236.033" y1="20" x2="236.033" y2="420.205" gradientUnits="userSpaceOnUse">
<stop stop-color="#005657"/>
<stop offset="1" stop-color="#00989D"/>
</linearGradient>
<linearGradient id="paint2_linear_223_2" x1="290.001" y1="20" x2="466.822" y2="420.477" gradientUnits="userSpaceOnUse">
<stop stop-color="#05949E"/>
<stop offset="1" stop-color="#005657"/>
</linearGradient>
</defs>
</svg>
