<svg width="1925" height="440" viewBox="0 0 1925 440" fill="none" xmlns="http://www.w3.org/2000/svg">
<path d="M675.355 270.06C661.245 270.06 648.24 267.85 636.34 263.43C624.61 258.84 614.325 252.38 605.485 244.05C596.815 235.72 590.015 225.945 585.085 214.725C580.325 203.505 577.945 191.18 577.945 177.75C577.945 164.32 580.325 151.995 585.085 140.775C590.015 129.555 596.9 119.78 605.74 111.45C614.58 103.12 624.95 96.745 636.85 92.325C648.75 87.735 661.84 85.44 676.12 85.44C691.93 85.44 706.125 88.075 718.705 93.345C731.455 98.615 742.165 106.265 750.835 116.295L724.315 140.775C717.855 133.975 710.8 128.96 703.15 125.73C695.5 122.33 687.17 120.63 678.16 120.63C669.49 120.63 661.585 121.99 654.445 124.71C647.305 127.43 641.1 131.34 635.83 136.44C630.73 141.54 626.735 147.575 623.845 154.545C621.125 161.515 619.765 169.25 619.765 177.75C619.765 186.08 621.125 193.73 623.845 200.7C626.735 207.67 630.73 213.79 635.83 219.06C641.1 224.16 647.22 228.07 654.19 230.79C661.33 233.51 669.15 234.87 677.65 234.87C685.81 234.87 693.715 233.595 701.365 231.045C709.185 228.325 716.75 223.82 724.06 217.53L747.52 247.365C737.83 254.675 726.525 260.285 713.605 264.195C700.855 268.105 688.105 270.06 675.355 270.06ZM709.78 242.01V174.945H747.52V247.365L709.78 242.01ZM785.894 267V88.5H863.159C879.139 88.5 892.909 91.135 904.469 96.405C916.029 101.505 924.954 108.9 931.244 118.59C937.534 128.28 940.679 139.84 940.679 153.27C940.679 166.53 937.534 178.005 931.244 187.695C924.954 197.215 916.029 204.525 904.469 209.625C892.909 214.725 879.139 217.275 863.159 217.275H808.844L827.204 199.17V267H785.894ZM899.369 267L854.744 202.23H898.859L943.994 267H899.369ZM827.204 203.76L808.844 184.38H860.864C873.614 184.38 883.134 181.66 889.424 176.22C895.714 170.61 898.859 162.96 898.859 153.27C898.859 143.41 895.714 135.76 889.424 130.32C883.134 124.88 873.614 122.16 860.864 122.16H808.844L827.204 102.525V203.76ZM949.948 267L1029.51 88.5H1070.31L1150.12 267H1106.77L1041.49 109.41H1057.81L992.278 267H949.948ZM989.728 228.75L1000.69 197.385H1092.49L1103.71 228.75H989.728ZM1168.64 267V88.5H1245.91C1261.89 88.5 1275.66 91.135 1287.22 96.405C1298.78 101.505 1307.7 108.9 1313.99 118.59C1320.28 128.28 1323.43 139.84 1323.43 153.27C1323.43 166.53 1320.28 178.005 1313.99 187.695C1307.7 197.385 1298.78 204.865 1287.22 210.135C1275.66 215.235 1261.89 217.785 1245.91 217.785H1191.59L1209.95 199.17V267H1168.64ZM1209.95 203.76L1191.59 184.125H1243.61C1256.36 184.125 1265.88 181.405 1272.17 175.965C1278.46 170.525 1281.61 162.96 1281.61 153.27C1281.61 143.41 1278.46 135.76 1272.17 130.32C1265.88 124.88 1256.36 122.16 1243.61 122.16H1191.59L1209.95 102.525V203.76ZM1475.32 88.5H1516.63V267H1475.32V88.5ZM1394.23 267H1352.92V88.5H1394.23V267ZM1478.38 193.815H1391.17V158.88H1478.38V193.815ZM1558.86 267V88.5H1600.17V267H1558.86ZM1727.96 270.06C1714.19 270.06 1701.35 267.85 1689.45 263.43C1677.72 258.84 1667.52 252.38 1658.85 244.05C1650.18 235.72 1643.38 225.945 1638.45 214.725C1633.69 203.505 1631.31 191.18 1631.31 177.75C1631.31 164.32 1633.69 151.995 1638.45 140.775C1643.38 129.555 1650.18 119.78 1658.85 111.45C1667.69 103.12 1677.98 96.745 1689.71 92.325C1701.44 87.735 1714.27 85.44 1728.21 85.44C1743.68 85.44 1757.62 88.16 1770.03 93.6C1782.61 98.87 1793.15 106.69 1801.65 117.06L1775.13 141.54C1769.01 134.57 1762.21 129.385 1754.73 125.985C1747.25 122.415 1739.09 120.63 1730.25 120.63C1721.92 120.63 1714.27 121.99 1707.3 124.71C1700.33 127.43 1694.3 131.34 1689.2 136.44C1684.1 141.54 1680.1 147.575 1677.21 154.545C1674.49 161.515 1673.13 169.25 1673.13 177.75C1673.13 186.25 1674.49 193.985 1677.21 200.955C1680.1 207.925 1684.1 213.96 1689.2 219.06C1694.3 224.16 1700.33 228.07 1707.3 230.79C1714.27 233.51 1721.92 234.87 1730.25 234.87C1739.09 234.87 1747.25 233.17 1754.73 229.77C1762.21 226.2 1769.01 220.845 1775.13 213.705L1801.65 238.185C1793.15 248.555 1782.61 256.46 1770.03 261.9C1757.62 267.34 1743.6 270.06 1727.96 270.06Z" fill="#005658"/>
<path d="M616.506 420.948C608.29 420.948 600.39 419.631 592.806 416.998C585.327 414.259 579.534 410.783 575.426 406.57L580.008 397.564C583.905 401.356 589.119 404.569 595.65 407.202C602.286 409.73 609.238 410.994 616.506 410.994C623.458 410.994 629.093 410.151 633.412 408.466C637.836 406.675 641.049 404.305 643.05 401.356C645.157 398.407 646.21 395.141 646.21 391.56C646.21 387.241 644.946 383.765 642.418 381.132C639.995 378.499 636.783 376.445 632.78 374.97C628.777 373.39 624.353 372.021 619.508 370.862C614.663 369.703 609.817 368.492 604.972 367.228C600.127 365.859 595.65 364.068 591.542 361.856C587.539 359.644 584.274 356.747 581.746 353.166C579.323 349.479 578.112 344.687 578.112 338.788C578.112 333.311 579.534 328.307 582.378 323.778C585.327 319.143 589.804 315.457 595.808 312.718C601.812 309.874 609.501 308.452 618.876 308.452C625.091 308.452 631.253 309.347 637.362 311.138C643.471 312.823 648.738 315.193 653.162 318.248L649.212 327.57C644.472 324.41 639.416 322.093 634.044 320.618C628.777 319.143 623.669 318.406 618.718 318.406C612.082 318.406 606.605 319.301 602.286 321.092C597.967 322.883 594.755 325.305 592.648 328.36C590.647 331.309 589.646 334.68 589.646 338.472C589.646 342.791 590.857 346.267 593.28 348.9C595.808 351.533 599.073 353.587 603.076 355.062C607.184 356.537 611.661 357.853 616.506 359.012C621.351 360.171 626.144 361.435 630.884 362.804C635.729 364.173 640.153 365.964 644.156 368.176C648.264 370.283 651.529 373.127 653.952 376.708C656.48 380.289 657.744 384.977 657.744 390.77C657.744 396.142 656.269 401.145 653.32 405.78C650.371 410.309 645.841 413.996 639.732 416.84C633.728 419.579 625.986 420.948 616.506 420.948ZM703.164 420V319.512H664.296V309.4H753.724V319.512H714.856V420H703.164ZM814.798 420.948C800.684 420.948 789.571 416.893 781.46 408.782C773.35 400.671 769.294 388.663 769.294 372.758V309.4H780.986V372.284C780.986 385.345 783.936 394.983 789.834 401.198C795.733 407.413 804.054 410.52 814.798 410.52C825.648 410.52 834.022 407.413 839.92 401.198C845.819 394.983 848.768 385.345 848.768 372.284V309.4H860.144V372.758C860.144 388.663 856.089 400.671 847.978 408.782C839.973 416.893 828.913 420.948 814.798 420.948ZM895.377 420V309.4H940.407C952.205 309.4 962.527 311.77 971.375 316.51C980.329 321.145 987.281 327.623 992.231 335.944C997.182 344.265 999.657 353.851 999.657 364.7C999.657 375.549 997.182 385.135 992.231 393.456C987.281 401.777 980.329 408.308 971.375 413.048C962.527 417.683 952.205 420 940.407 420H895.377ZM907.069 409.888H939.775C949.571 409.888 958.051 407.992 965.213 404.2C972.481 400.303 978.117 394.983 982.119 388.242C986.122 381.395 988.123 373.548 988.123 364.7C988.123 355.747 986.122 347.899 982.119 341.158C978.117 334.417 972.481 329.15 965.213 325.358C958.051 321.461 949.571 319.512 939.775 319.512H907.069V409.888ZM1025.91 420V309.4H1037.6V420H1025.91ZM1121.94 420.948C1113.62 420.948 1105.87 419.579 1098.71 416.84C1091.65 413.996 1085.49 410.046 1080.23 404.99C1075.06 399.829 1071.01 393.877 1068.06 387.136C1065.22 380.289 1063.79 372.811 1063.79 364.7C1063.79 356.589 1065.22 349.163 1068.06 342.422C1071.01 335.575 1075.06 329.624 1080.23 324.568C1085.49 319.407 1091.65 315.457 1098.71 312.718C1105.77 309.874 1113.51 308.452 1121.94 308.452C1130.26 308.452 1137.95 309.874 1145.01 312.718C1152.06 315.457 1158.17 319.354 1163.33 324.41C1168.6 329.466 1172.66 335.417 1175.5 342.264C1178.45 349.111 1179.92 356.589 1179.92 364.7C1179.92 372.811 1178.45 380.289 1175.5 387.136C1172.66 393.983 1168.6 399.934 1163.33 404.99C1158.17 410.046 1152.06 413.996 1145.01 416.84C1137.95 419.579 1130.26 420.948 1121.94 420.948ZM1121.94 410.52C1128.57 410.52 1134.68 409.414 1140.27 407.202C1145.95 404.885 1150.85 401.672 1154.96 397.564C1159.17 393.351 1162.44 388.505 1164.76 383.028C1167.07 377.445 1168.23 371.336 1168.23 364.7C1168.23 358.064 1167.07 352.007 1164.76 346.53C1162.44 340.947 1159.17 336.102 1154.96 331.994C1150.85 327.781 1145.95 324.568 1140.27 322.356C1134.68 320.039 1128.57 318.88 1121.94 318.88C1115.3 318.88 1109.14 320.039 1103.45 322.356C1097.76 324.568 1092.81 327.781 1088.6 331.994C1084.49 336.102 1081.23 340.947 1078.8 346.53C1076.49 352.007 1075.33 358.064 1075.33 364.7C1075.33 371.231 1076.49 377.287 1078.8 382.87C1081.23 388.453 1084.49 393.351 1088.6 397.564C1092.81 401.672 1097.76 404.885 1103.45 407.202C1109.14 409.414 1115.3 410.52 1121.94 410.52Z" fill="#005657"/>
<path d="M245.416 339L220.309 420.341H152L177.107 339H245.416Z" fill="url(#paint0_linear_223_2)"/>
<path d="M373.066 327.409H153.85L150.308 338.865L125.201 420.205H61L86.1069 338.865L89.6304 327.409L108.487 266.377L113.693 249.503L184.534 20H248.735L177.894 249.503L172.689 266.377H354.227L373.066 327.409Z" fill="url(#paint1_linear_223_2)"/>
<path d="M469.297 420.205H401.714L376.607 338.865L373.066 327.409L354.227 266.377L349.022 249.503L308.032 116.762L267.061 249.503H198.752L269.593 20H345.746L416.605 249.503L421.81 266.377L440.649 327.409L444.19 338.865L469.297 420.205Z" fill="url(#paint2_linear_223_2)"/>
<defs>
<linearGradient id="paint0_linear_223_2" x1="198.708" y1="339" x2="198.708" y2="420.341" gradientUnits="userSpaceOnUse">
<stop stop-color="#00989D"/>
<stop offset="0.389423" stop-color="#00565A"/>
</linearGradient>
<linearGradient id="paint1_linear_223_2" x1="217.033" y1="20" x2="217.033" y2="420.205" gradientUnits="userSpaceOnUse">
<stop stop-color="#005657"/>
<stop offset="1" stop-color="#00989D"/>
</linearGradient>
<linearGradient id="paint2_linear_223_2" x1="271.001" y1="20" x2="447.822" y2="420.477" gradientUnits="userSpaceOnUse">
<stop stop-color="#05949E"/>
<stop offset="1" stop-color="#005657"/>
</linearGradient>
</defs>
</svg>
